<svg width="24" height="19" viewBox="0 0 24 19" fill="none" xmlns="http://www.w3.org/2000/svg">
<path d="M13.88 0.471998C16.024 0.471998 17.856 0.791998 19.376 1.432C20.896 2.056 22.04 2.92 22.808 4.024C23.592 5.128 23.984 6.368 23.984 7.744C23.984 8.512 23.864 9.304 23.624 10.12C23.176 11.56 22.336 12.712 21.104 13.576C19.872 14.44 18.416 14.872 16.736 14.872C15.888 14.872 15.096 14.728 14.36 14.44C13.64 14.136 13.12 13.736 12.8 13.24C12.32 13.768 11.744 14.176 11.072 14.464C10.4 14.736 9.712 14.872 9.008 14.872C7.904 14.872 6.96 14.6 6.176 14.056C5.392 13.496 4.928 12.712 4.784 11.704C4.752 11.528 4.736 11.264 4.736 10.912C4.736 9.712 5.096 8.624 5.816 7.648C6.552 6.672 7.56 5.904 8.84 5.344C10.136 4.784 11.584 4.504 13.184 4.504C15.136 4.504 16.608 4.8 17.6 5.392C18.608 5.984 19.112 6.808 19.112 7.864C19.112 8.248 19.04 8.672 18.896 9.136L18.032 11.92L17.984 12.208C17.984 12.48 18.128 12.616 18.416 12.616C18.704 12.616 19.032 12.504 19.4 12.28C19.768 12.04 20.112 11.704 20.432 11.272C20.768 10.824 21.032 10.296 21.224 9.688C21.432 9.064 21.536 8.456 21.536 7.864C21.536 6.76 21.184 5.816 20.48 5.032C19.792 4.248 18.848 3.656 17.648 3.256C16.464 2.84 15.128 2.632 13.64 2.632C10.872 2.632 8.504 3.224 6.536 4.408C4.584 5.592 3.32 7.304 2.744 9.544C2.6 10.184 2.528 10.792 2.528 11.368C2.528 13.032 3.088 14.328 4.208 15.256C5.328 16.184 6.8 16.648 8.624 16.648C9.328 16.648 10.168 16.576 11.144 16.432C11.688 16.368 12.016 16.336 12.128 16.336C12.288 16.336 12.408 16.368 12.488 16.432C12.584 16.512 12.632 16.616 12.632 16.744C12.632 17.016 12.424 17.304 12.008 17.608C11.592 17.928 11.008 18.192 10.256 18.4C9.504 18.608 8.656 18.712 7.712 18.712C6.336 18.712 5.056 18.432 3.872 17.872C2.704 17.312 1.768 16.496 1.064 15.424C0.36 14.352 0.00800016 13.08 0.00800016 11.608C0.00800016 10.632 0.176 9.584 0.512 8.464C1.024 6.784 1.92 5.344 3.2 4.144C4.48 2.944 6.032 2.032 7.856 1.408C9.696 0.783998 11.704 0.471998 13.88 0.471998ZM13.376 6.4C12.896 6.4 12.464 6.656 12.08 7.168C11.712 7.664 11.416 8.264 11.192 8.968C10.984 9.672 10.88 10.288 10.88 10.816C10.88 10.976 10.896 11.136 10.928 11.296C10.976 11.456 11.064 11.592 11.192 11.704C11.336 11.8 11.496 11.848 11.672 11.848C11.864 11.848 12.016 11.8 12.128 11.704C12.256 11.592 12.36 11.408 12.44 11.152L13.784 6.784C13.8 6.752 13.808 6.712 13.808 6.664C13.808 6.488 13.664 6.4 13.376 6.4Z" fill="#CBB377"/>
</svg>
