<svg width="14" height="18" viewBox="0 0 14 18" fill="none" xmlns="http://www.w3.org/2000/svg">
<path d="M0.4375 7.61539L7 10.3846L13.5625 7.61539L7 18L3.0625 11.7692L0.4375 7.61539Z" fill="#CBB377"/>
<path d="M14 5.53846C14 8.59727 10.866 11.0769 7 11.0769C3.13401 11.0769 0 8.59727 0 5.53846C0 2.47965 3.13401 0 7 0C10.866 0 14 2.47965 14 5.53846ZM2.67727 5.53846C2.67727 7.42737 4.61262 8.95864 7 8.95864C9.38738 8.95864 11.3227 7.42737 11.3227 5.53846C11.3227 3.64955 9.38738 2.11828 7 2.11828C4.61262 2.11828 2.67727 3.64955 2.67727 5.53846Z" fill="#CBB377"/>
</svg>
