<svg width="20" height="18" viewBox="0 0 20 18" fill="none" xmlns="http://www.w3.org/2000/svg">
<path d="M0 2.44444C0 1.21715 0.994923 0.222221 2.22222 0.222221H17.7778C19.0051 0.222221 20 1.21714 20 2.44444V15.7778C20 17.0051 19.0051 18 17.7778 18H2.22222C0.994922 18 0 17.0051 0 15.7778V2.44444Z" fill="#CBB377"/>
<rect x="1.11111" y="2.44444" width="17.7778" height="5.55556" rx="2.22222" fill="white"/>
<path d="M4.31667 4.42916C5.13819 4.42916 5.54896 4.74363 5.54896 5.37257C5.54896 5.5471 5.51887 5.7397 5.45868 5.95035C5.30521 6.49201 5.07199 6.88171 4.75903 7.11944C4.44907 7.35416 4.05486 7.47153 3.57639 7.47153C2.75787 7.47153 2.34861 7.15856 2.34861 6.53264C2.34861 6.35509 2.3787 6.16099 2.43889 5.95035C2.59236 5.40868 2.82407 5.02048 3.13403 4.78576C3.44699 4.54803 3.8412 4.42916 4.31667 4.42916ZM4.26701 4.84444C4.1978 4.84444 4.1316 4.87454 4.0684 4.93472C4.00822 4.99491 3.94352 5.10625 3.8743 5.26875C3.8081 5.42824 3.73437 5.65544 3.65312 5.95035C3.53877 6.36863 3.4816 6.66354 3.4816 6.83507C3.4816 6.91933 3.49363 6.97801 3.51771 7.01111C3.54479 7.04421 3.58391 7.06076 3.63507 7.06076C3.70428 7.06076 3.76898 7.03067 3.82917 6.97048C3.89236 6.9103 3.95706 6.79896 4.02326 6.63646C4.09248 6.47396 4.1662 6.24525 4.24444 5.95035C4.3618 5.52002 4.42049 5.22511 4.42049 5.06562C4.42049 4.98437 4.40694 4.9272 4.37986 4.8941C4.35579 4.86099 4.31817 4.84444 4.26701 4.84444ZM7.2143 4.43819C7.51523 4.43819 7.77553 4.48183 7.9952 4.5691C8.21789 4.65335 8.38641 4.7647 8.50076 4.90312C8.61812 5.04155 8.6768 5.189 8.6768 5.34548C8.6768 5.40266 8.66777 5.46134 8.64972 5.52153C8.60759 5.64791 8.53687 5.74722 8.43756 5.81944C8.33826 5.89166 8.18629 5.95787 7.98166 6.01805C7.77703 6.07523 7.46256 6.14444 7.03826 6.22569C6.78247 6.27384 6.58988 6.31748 6.46048 6.3566C6.33409 6.39271 6.24532 6.43183 6.19416 6.47396C6.14601 6.51609 6.11893 6.57025 6.11291 6.63646H7.41291C7.59347 6.63646 7.73039 6.61238 7.82368 6.56423C7.91696 6.51609 8.00423 6.45139 8.08548 6.37014C8.12159 6.33102 8.15018 6.30393 8.17124 6.28889C8.19532 6.27083 8.2224 6.2618 8.25249 6.2618C8.30666 6.2618 8.35631 6.29942 8.40145 6.37465C8.44659 6.44687 8.46916 6.54016 8.46916 6.65451C8.46916 6.72974 8.45562 6.81551 8.42854 6.9118C8.36835 7.1044 8.26002 7.24132 8.10354 7.32257C7.94706 7.40382 7.71083 7.44444 7.39486 7.44444H5.80145C5.70516 7.44444 5.62692 7.40382 5.56673 7.32257C5.50955 7.24132 5.48097 7.13148 5.48097 6.99305C5.48097 6.89074 5.49902 6.7794 5.53513 6.65903C5.59833 6.45139 5.71418 6.28437 5.8827 6.15798C6.05122 6.02859 6.28895 5.92025 6.5959 5.83298C6.80053 5.7728 6.95851 5.71412 7.06986 5.65694C7.1812 5.59676 7.26094 5.53808 7.30909 5.4809C7.35724 5.42072 7.39486 5.34699 7.42194 5.25972C7.43699 5.19954 7.44451 5.14988 7.44451 5.11076C7.44451 5.0265 7.41893 4.95879 7.36777 4.90764C7.31662 4.85648 7.2474 4.8309 7.16013 4.8309C7.13606 4.8309 7.09393 4.83692 7.03374 4.84896C7.03675 4.86701 7.03826 4.8941 7.03826 4.93021C7.03826 5.13484 6.97657 5.28831 6.85319 5.39062C6.72981 5.49294 6.57483 5.5441 6.38826 5.5441C6.24983 5.5441 6.13999 5.50798 6.05874 5.43576C5.97749 5.36354 5.93687 5.26574 5.93687 5.14236C5.93687 5.08217 5.94439 5.02801 5.95944 4.97986C6.01361 4.80231 6.15053 4.6684 6.3702 4.57812C6.58988 4.48484 6.87124 4.43819 7.2143 4.43819ZM9.17315 6.53264C9.29352 6.53264 9.39433 6.57326 9.47558 6.65451C9.55984 6.73576 9.60197 6.83507 9.60197 6.95243C9.60197 7.03368 9.5794 7.11342 9.53426 7.19166C9.49213 7.26991 9.43195 7.3346 9.35371 7.38576C9.27848 7.43391 9.19271 7.45798 9.09642 7.45798C8.97905 7.45798 8.87975 7.41736 8.7985 7.33611C8.71725 7.25486 8.67512 7.15555 8.67211 7.03819C8.67211 6.95694 8.69317 6.8772 8.7353 6.79896C8.77743 6.72072 8.83611 6.65752 8.91135 6.60937C8.98959 6.55822 9.07686 6.53264 9.17315 6.53264ZM11.759 4.43819C12.06 4.43819 12.3203 4.48183 12.5399 4.5691C12.7626 4.65335 12.9312 4.7647 13.0455 4.90312C13.1629 5.04155 13.2215 5.189 13.2215 5.34548C13.2215 5.40266 13.2125 5.46134 13.1945 5.52153C13.1523 5.64791 13.0816 5.74722 12.9823 5.81944C12.883 5.89166 12.731 5.95787 12.5264 6.01805C12.3218 6.07523 12.0073 6.14444 11.583 6.22569C11.3272 6.27384 11.1346 6.31748 11.0052 6.3566C10.8788 6.39271 10.7901 6.43183 10.7389 6.47396C10.6908 6.51609 10.6637 6.57025 10.6577 6.63646H11.9577C12.1382 6.63646 12.2751 6.61238 12.3684 6.56423C12.4617 6.51609 12.549 6.45139 12.6302 6.37014C12.6663 6.33102 12.6949 6.30393 12.716 6.28889C12.7401 6.27083 12.7671 6.2618 12.7972 6.2618C12.8514 6.2618 12.9011 6.29942 12.9462 6.37465C12.9913 6.44687 13.0139 6.54016 13.0139 6.65451C13.0139 6.72974 13.0004 6.81551 12.9733 6.9118C12.9131 7.1044 12.8048 7.24132 12.6483 7.32257C12.4918 7.40382 12.2556 7.44444 11.9396 7.44444H10.3462C10.2499 7.44444 10.1717 7.40382 10.1115 7.32257C10.0543 7.24132 10.0257 7.13148 10.0257 6.99305C10.0257 6.89074 10.0438 6.7794 10.0799 6.65903C10.1431 6.45139 10.2589 6.28437 10.4274 6.15798C10.596 6.02859 10.8337 5.92025 11.1406 5.83298C11.3453 5.7728 11.5033 5.71412 11.6146 5.65694C11.7259 5.59676 11.8057 5.53808 11.8538 5.4809C11.902 5.42072 11.9396 5.34699 11.9667 5.25972C11.9817 5.19954 11.9893 5.14988 11.9893 5.11076C11.9893 5.0265 11.9637 4.95879 11.9125 4.90764C11.8614 4.85648 11.7921 4.8309 11.7049 4.8309C11.6808 4.8309 11.6387 4.83692 11.5785 4.84896C11.5815 4.86701 11.583 4.8941 11.583 4.93021C11.583 5.13484 11.5213 5.28831 11.3979 5.39062C11.2746 5.49294 11.1196 5.5441 10.933 5.5441C10.7946 5.5441 10.6847 5.50798 10.6035 5.43576C10.5222 5.36354 10.4816 5.26574 10.4816 5.14236C10.4816 5.08217 10.4891 5.02801 10.5042 4.97986C10.5584 4.80231 10.6953 4.6684 10.9149 4.57812C11.1346 4.48484 11.416 4.43819 11.759 4.43819ZM15.9794 5.5125C15.8078 5.5125 15.6709 5.47338 15.5686 5.39514C15.4663 5.3169 15.4151 5.21308 15.4151 5.08368C15.4151 4.99641 15.4392 4.90463 15.4873 4.80833C15.4392 4.80231 15.4031 4.7993 15.379 4.7993C15.2165 4.7993 15.0781 4.86852 14.9637 5.00694C14.8524 5.14236 14.7561 5.35903 14.6748 5.65694C14.8343 5.58472 15.0089 5.54861 15.1985 5.54861C15.4241 5.54861 15.6243 5.58322 15.7988 5.65243C15.9733 5.72164 16.1088 5.81944 16.205 5.94583C16.3013 6.06921 16.3495 6.21366 16.3495 6.37916C16.3495 6.44236 16.3405 6.51007 16.3224 6.58229C16.2562 6.85914 16.0967 7.07731 15.8439 7.2368C15.5942 7.39629 15.2436 7.47604 14.7922 7.47604C14.3498 7.47604 14.0113 7.37523 13.7766 7.17361C13.5449 6.96898 13.429 6.6831 13.429 6.31597C13.429 6.12037 13.4636 5.90069 13.5328 5.65694C13.6562 5.23264 13.8654 4.91817 14.1603 4.71354C14.4552 4.50891 14.8223 4.4066 15.2616 4.4066C15.5295 4.4066 15.7582 4.43368 15.9478 4.48785C16.1404 4.54201 16.2848 4.61724 16.3811 4.71354C16.4804 4.80683 16.5316 4.91065 16.5346 5.025C16.5346 5.16342 16.4894 5.27928 16.3991 5.37257C16.3119 5.46585 16.1719 5.5125 15.9794 5.5125ZM14.9366 5.99548C14.8524 5.99548 14.7741 6.04363 14.7019 6.13993C14.6327 6.23322 14.58 6.36713 14.5439 6.54166C14.5259 6.62291 14.5169 6.69664 14.5169 6.76285C14.5169 6.85914 14.5334 6.93437 14.5665 6.98854C14.6026 7.04271 14.6508 7.06979 14.711 7.06979C14.7862 7.06979 14.8554 7.02315 14.9186 6.92986C14.9848 6.83356 15.0405 6.70416 15.0856 6.54166C15.1067 6.45741 15.1172 6.37766 15.1172 6.30243C15.1172 6.20914 15.1007 6.13541 15.0675 6.08125C15.0344 6.02407 14.9908 5.99548 14.9366 5.99548Z" fill="black"/>
</svg>
