<svg width="47" height="47" viewBox="0 0 47 47" fill="none" xmlns="http://www.w3.org/2000/svg">
<path d="M42.2737 28.8663C43.5857 28.8663 44.5697 29.1474 45.2257 29.7097C45.9286 30.2251 46.28 30.9749 46.28 31.9589C46.28 32.3806 46.2097 32.8491 46.0691 33.3646L43.7497 41.588C43.1406 43.6029 42.2737 45.0086 41.1491 45.8051C40.0714 46.6017 38.4549 47 36.2994 47H3.26514C2.28114 47 1.53143 46.836 1.016 46.508C0.453714 46.18 0.172571 45.7349 0.172571 45.1726C0.172571 44.8914 0.242857 44.5869 0.383428 44.2589C0.524 43.884 0.758286 43.5794 1.08629 43.3451C1.41429 43.064 1.76571 42.8063 2.14057 42.572C2.89029 42.1034 3.49943 41.6349 3.968 41.1663C4.43657 40.6509 4.83486 39.8309 5.16286 38.7063L13.7377 8.41314C13.9251 7.804 14.0189 7.21828 14.0189 6.656C14.0189 6.14057 13.9251 5.71886 13.7377 5.39086C13.5971 5.016 13.3863 4.59428 13.1051 4.12571C12.6834 3.51657 12.4726 3.02457 12.4726 2.64971C12.4726 2.50914 12.5194 2.25143 12.6131 1.87657C12.8006 1.26743 13.1989 0.845713 13.808 0.611427C14.464 0.330285 15.448 0.189714 16.76 0.189714H33.2771C34.2611 0.189714 35.0109 0.353714 35.5263 0.681712C36.0886 0.962854 36.3697 1.38457 36.3697 1.94686C36.3697 2.18114 36.2994 2.48571 36.1589 2.86057C36.0183 3.18857 35.8074 3.49314 35.5263 3.77429C35.292 4.00857 35.0577 4.196 34.8234 4.33657C34.636 4.43028 34.4954 4.524 34.4017 4.61771C33.652 5.03943 33.0429 5.508 32.5743 6.02343C32.1057 6.53886 31.7074 7.33543 31.3794 8.41314L22.3126 40.2526H26.6703C27.748 40.2526 28.6617 40.0651 29.4114 39.6903C30.208 39.3154 31.028 38.6126 31.8714 37.5817L36.7211 31.8183C37.6114 30.7874 38.4549 30.0377 39.2514 29.5691C40.0949 29.1006 41.1023 28.8663 42.2737 28.8663Z" fill="#CBB377"/>
</svg>
